<svg width="127" height="153" viewBox="0 0 127 153" fill="none" xmlns="http://www.w3.org/2000/svg">
<path d="M54.9543 91.4688H63.2222L58.8496 84.3788L50.8248 97.1978H47.1726L56.9337 81.7998C57.3584 81.1778 58.0648 80.8018 58.8496 80.8018C59.6086 80.8018 60.3161 81.1648 60.7268 81.7738L70.5257 97.1978H66.8734L65.151 94.3328H56.7789L54.9543 91.4688ZM92.8906 94.3328V80.9578H89.792V95.6428C89.792 96.0448 89.9468 96.4338 90.2424 96.7318C90.5381 97.0298 90.937 97.1978 91.3745 97.1978H105.507L107.334 94.3328H92.8906ZM41.6173 91.9358C44.6266 91.9358 47.0704 89.4868 47.0704 86.4538C47.0704 83.4208 44.6276 80.9578 41.6173 80.9578H28.0591V97.1988H31.1577V83.8218H41.4119C42.8526 83.8218 44.0095 85.0018 44.0095 86.4528C44.0095 87.9038 42.8516 89.0838 41.4119 89.0838L32.6747 89.0708L41.9259 97.1978H46.4284L40.2034 91.9348H41.6173V91.9358ZM8.98823 97.1978C4.54026 97.1978 0.929688 93.5688 0.929688 89.0838C0.929688 84.5988 4.53926 80.9568 8.98823 80.9568H18.3535C22.8035 80.9568 26.411 84.5998 26.411 89.0838C26.411 93.5678 22.8035 97.1978 18.3535 97.1978H8.98823ZM18.1451 94.3328C21.0274 94.3328 23.3621 91.9868 23.3621 89.0838C23.3621 86.1808 21.0274 83.8208 18.1451 83.8208H9.19461C6.31528 83.8208 3.97967 86.1798 3.97967 89.0838C3.97967 91.9868 6.31528 94.3328 9.19461 94.3328H18.1451ZM76.9957 97.1978C72.5468 97.1978 68.9332 93.5688 68.9332 89.0838C68.9332 84.5988 72.5468 80.9568 76.9957 80.9568H88.1201L86.3054 83.8208H77.2021C74.3208 83.8208 71.9792 86.1798 71.9792 89.0838C71.9792 91.9868 74.3208 94.3328 77.2021 94.3328H88.3771L86.5515 97.1978H76.9957ZM114.894 94.3328C112.516 94.3328 110.496 92.7258 109.879 90.5088H123.125L124.95 87.6448H109.879C110.496 85.4418 112.516 83.8208 114.894 83.8208H123.986L125.825 80.9568H114.688C110.239 80.9568 106.625 84.5998 106.625 89.0838C106.625 93.5678 110.239 97.1978 114.688 97.1978H124.244L126.07 94.3328H114.894Z" fill="#EA1B22"/>
<g clip-path="url(#clip0_0_1)">
<path d="M117.495 0H43.3334V42H117.495C121.087 42 124 39.0618 124 35.4375V6.5625C124 2.93814 121.087 0 117.495 0Z" fill="#0F1418"/>
<path d="M43.3333 0H9.50538C5.91256 0 3 2.93814 3 6.5625V35.4375C3 39.0618 5.91256 42 9.50538 42H43.3333V0Z" fill="url(#paint0_linear_0_1)"/>
<path d="M36.9363 7.875C36.8566 7.87556 36.7769 7.88423 36.6988 7.90084L36.6964 7.89849L24.7117 9.5481V19.9063H38.129V9.07813C38.129 8.75903 38.0033 8.45301 37.7797 8.22739C37.556 8.00176 37.2526 7.875 36.9363 7.875ZM22.3171 9.87473L10.542 11.4961C10.2554 11.5343 9.99234 11.6761 9.80166 11.8953C9.61101 12.1144 9.50571 12.3959 9.50537 12.6875V19.9063H22.3171V9.87473ZM9.50537 22.3125V29.5312C9.50563 29.8295 9.61564 30.1169 9.81404 30.3378C10.0125 30.5588 10.2851 30.6977 10.5792 30.7273L22.3171 32.3441V22.3125H9.50537ZM24.7117 22.3125V32.6706L36.6964 34.3203C36.6972 34.3203 36.698 34.3203 36.6988 34.3203C36.7769 34.3361 36.8566 34.3439 36.9363 34.3438C37.2526 34.3438 37.556 34.217 37.7797 33.9914C38.0033 33.7658 38.129 33.4597 38.129 33.1406V22.3125H24.7117Z" fill="white"/>
<path d="M81.3075 15.0898L77.6958 28.8749H74.2843L72.0164 20.0309C71.8956 19.5695 71.8226 19.0536 71.7971 18.4832H71.759C71.7019 19.1112 71.6193 19.6272 71.5113 20.0309L69.1861 28.8749H65.6317L62.0391 15.0898H65.403L67.3279 24.2703C67.4104 24.6612 67.4708 25.1866 67.5089 25.8468H67.5662C67.5915 25.3533 67.6836 24.8149 67.8425 24.2318L70.3201 15.0898H73.6173L75.8566 24.3472C75.9392 24.6868 76.0123 25.1803 76.0758 25.8275H76.114C76.1393 25.3213 76.2061 24.8086 76.3141 24.2894L78.2009 15.0898H81.3075ZM87.0401 24.126V28.8749H83.9622V15.0898H88.784C92.2273 15.0898 93.9488 16.5542 93.9488 19.4829C93.9488 20.8672 93.4534 21.9887 92.4624 22.8475C91.4776 23.6998 90.1593 24.126 88.5076 24.126H87.0401ZM87.0401 17.4739V21.7709H88.2503C89.8894 21.7709 90.7089 21.0466 90.7089 19.5983C90.7089 18.182 89.8894 17.4739 88.2503 17.4739H87.0401ZM104.77 17.618H99.9484V21.0019H104.379V23.5204H99.9484V28.8749H96.8704V15.0898H104.77V17.618Z" fill="white"/>
<path d="M117.495 0H9.50538C5.91256 0 3 2.93814 3 6.5625V35.4375C3 39.0618 5.91256 42 9.50538 42H117.495C121.087 42 124 39.0618 124 35.4375V6.5625C124 2.93814 121.087 0 117.495 0Z" fill="url(#paint1_linear_0_1)"/>
</g>
<defs>
<linearGradient id="paint0_linear_0_1" x1="43.3333" y1="1.2517e-06" x2="2.6361" y2="41.6444" gradientUnits="userSpaceOnUse">
<stop stop-color="#23CAF6"/>
<stop offset="1" stop-color="#0575BD"/>
</linearGradient>
<linearGradient id="paint1_linear_0_1" x1="3" y1="0" x2="3" y2="42" gradientUnits="userSpaceOnUse">
<stop stop-color="#BBBBBB" stop-opacity="0.1"/>
<stop offset="1" stop-opacity="0.1"/>
</linearGradient>
<clipPath id="clip0_0_1">
<rect width="121" height="42" fill="white" transform="translate(3)"/>
</clipPath>
</defs>
</svg>
