<svg width="79" height="95" viewBox="0 0 79 95" fill="none" xmlns="http://www.w3.org/2000/svg">
<path d="M39.5 60.9132C45.0321 66.2936 50.4883 69.4765 54.8836 69.4765C56.3235 69.4765 57.6875 69.1733 58.8242 68.4913C62.7649 66.2179 64.2047 60.5343 62.8406 52.4257C62.6133 50.9858 62.3102 49.546 61.9313 48.0304C63.4469 47.5757 64.811 47.121 66.175 46.6663C73.8289 43.7108 78.0727 39.6187 78.0727 35.1476C78.0727 30.6007 73.8289 26.5085 66.175 23.6288C64.811 23.0983 63.4469 22.6437 61.9313 22.2647C62.3102 20.7491 62.6133 19.3093 62.8406 17.8694C64.1289 9.60928 62.6891 3.8499 58.7485 1.57647C57.6117 0.894434 56.2477 0.591309 54.8078 0.591309C50.4883 0.591309 44.9563 3.77412 39.4242 9.15459C33.968 3.77412 28.5117 0.591309 24.1164 0.591309C22.6766 0.591309 21.3125 0.894434 20.1758 1.57647C16.2352 3.8499 14.7953 9.5335 16.1594 17.6421C16.3867 19.0819 16.6899 20.5218 17.0688 22.0374C15.5531 22.4921 14.1891 22.9468 12.825 23.4015C5.17112 26.3569 0.927368 30.4491 0.927368 34.9202C0.927368 39.4671 5.17112 43.5593 12.825 46.439C14.1891 46.9694 15.5531 47.4241 17.0688 47.803C16.6899 49.3187 16.3867 50.7585 16.1594 52.1983C14.8711 60.3069 16.311 66.0663 20.1758 68.264C21.3125 68.946 22.6766 69.2491 24.1164 69.2491C28.5117 69.4007 33.968 66.2179 39.5 60.9132ZM35.2563 50.6827C36.6203 50.7585 38.0602 50.7585 39.5 50.7585C40.9399 50.7585 42.3797 50.7585 43.7438 50.6827C42.3797 52.5015 40.9399 54.1687 39.5 55.7601C38.0602 54.1687 36.6203 52.5015 35.2563 50.6827ZM25.8594 42.8772C26.6172 44.1655 27.2992 45.378 28.1328 46.5905C25.7836 46.2874 23.586 45.9085 21.4641 45.4538C22.1461 43.4077 22.9039 41.2858 23.8133 39.164C24.4196 40.3765 25.1016 41.6647 25.8594 42.8772ZM21.4641 24.614C23.586 24.1593 25.7836 23.7804 28.1328 23.4772C27.375 24.6897 26.6172 25.9022 25.8594 27.1905C25.1016 28.4788 24.4196 29.6913 23.8133 30.9796C22.8281 28.7819 22.0703 26.6601 21.4641 24.614ZM25.6321 34.996C26.6172 32.9499 27.6781 30.9038 28.8906 28.8577C30.0274 26.8874 31.3156 24.9171 32.6039 22.9468C34.8774 22.7952 37.1508 22.7194 39.5 22.7194C41.925 22.7194 44.1985 22.7952 46.3961 22.9468C47.7602 24.9171 48.9727 26.8874 50.1094 28.8577C51.3219 30.9038 52.3828 32.9499 53.368 34.996C52.3828 37.0421 51.3219 39.0882 50.1094 41.1343C48.9727 43.1046 47.6844 45.0749 46.3961 47.0452C44.1227 47.1968 41.8492 47.2726 39.5 47.2726C37.075 47.2726 34.8016 47.1968 32.6039 47.0452C31.2399 45.0749 30.0274 43.1046 28.8906 41.1343C27.6781 39.0882 26.6172 37.0421 25.6321 34.996ZM55.2625 30.9038L53.2164 27.1147C52.4586 25.8265 51.7766 24.614 50.943 23.4015C53.2922 23.7046 55.4899 24.0835 57.6117 24.5382C56.9297 26.6601 56.1719 28.7819 55.2625 30.9038ZM55.2625 39.0882C56.1719 41.2101 56.9297 43.3319 57.6117 45.378C55.4899 45.8327 53.2922 46.2116 50.943 46.5147C51.7008 45.3022 52.4586 44.0897 53.2164 42.8015C53.8985 41.6647 54.5805 40.3765 55.2625 39.0882ZM57.0055 65.3843C56.3992 65.7632 55.6414 65.9147 54.8078 65.9147C51.0946 65.9147 46.4719 62.8835 41.925 58.3366C44.1227 55.9874 46.2446 53.3351 48.3664 50.3796C51.9281 50.0765 55.3383 49.546 58.5211 48.7882C58.9 50.1522 59.1274 51.5163 59.3547 52.8804C60.4156 59.3218 59.5821 63.9444 57.0055 65.3843ZM60.9461 25.4476C69.4336 27.8726 74.511 31.5858 74.511 34.996C74.511 37.9515 71.025 40.9069 64.8867 43.2562C63.6742 43.7108 62.3102 44.1655 60.9461 44.5444C59.961 41.4374 58.7485 38.2546 57.2328 34.996C58.7485 31.7374 60.0367 28.5546 60.9461 25.4476ZM54.8836 4.07725C55.7172 4.07725 56.3992 4.22881 57.0813 4.60772C59.5821 6.04756 60.4914 10.5944 59.4305 17.1116C59.2031 18.3999 58.9 19.764 58.5969 21.2038C55.4141 20.5218 52.0039 19.9913 48.4422 19.6124C46.3961 16.6569 44.1985 14.0046 42.0008 11.6554C46.5477 7.18428 51.1703 4.07725 54.8836 4.07725ZM43.7438 19.3093C42.3797 19.2335 40.9399 19.2335 39.5 19.2335C38.0602 19.2335 36.6203 19.2335 35.2563 19.3093C36.6203 17.4905 38.0602 15.8233 39.5 14.2319C40.9399 15.8233 42.3797 17.5663 43.7438 19.3093ZM21.9946 4.60772C22.6008 4.22881 23.3586 4.07725 24.1922 4.07725C27.9055 4.07725 32.5281 7.1085 37.075 11.6554C34.8774 14.0046 32.7555 16.6569 30.6336 19.6124C27.0719 19.9155 23.6617 20.446 20.4789 21.2038C20.1 19.8397 19.8727 18.4757 19.6453 17.1116C18.5844 10.6702 19.418 6.12334 21.9946 4.60772ZM18.0539 44.5444C9.56643 42.1194 4.48909 38.4062 4.48909 34.996C4.48909 32.0405 7.97502 29.0851 14.1133 26.7358C15.3258 26.2812 16.6899 25.8265 18.0539 25.4476C19.0391 28.5546 20.2516 31.7374 21.7672 34.996C20.2516 38.2546 18.9633 41.5132 18.0539 44.5444ZM19.6453 52.8804C19.8727 51.5921 20.1758 50.228 20.4789 48.7882C23.6617 49.4702 27.0719 50.0007 30.6336 50.3796C32.6797 53.3351 34.8774 55.9874 37.075 58.3366C32.5281 62.8077 27.9055 65.9147 24.1922 65.9147C23.3586 65.9147 22.6766 65.7632 21.9946 65.3843C19.418 63.9444 18.5844 59.3218 19.6453 52.8804ZM16.4625 84.1022C18.1297 82.0562 18.2055 79.7827 17.2961 77.5093C16.3867 75.2358 14.4922 74.1749 12.143 74.0991C9.33909 74.0233 6.4594 74.0991 3.65549 74.0991H3.12502V93.7265H5.39846V86.2999H8.96018C9.41487 86.2999 9.79377 86.4515 10.0211 86.8304L14.568 93.878C14.6438 94.0296 14.8711 94.2569 15.0227 94.2569H17.9781C16.1594 91.453 14.4164 88.8007 12.5977 86.0726C14.1891 85.8452 15.5531 85.3148 16.4625 84.1022ZM5.39846 83.9507V76.4483H6.23206C7.97502 76.4483 9.79377 76.3726 11.5367 76.5241C13.5828 76.5999 15.0227 78.1913 15.0227 80.2374C15.0227 82.2835 13.3555 83.8749 11.3094 83.9507C9.49065 84.0265 7.6719 83.9507 5.39846 83.9507ZM34.7258 84.9358C33.5133 79.6312 28.6633 78.2671 24.95 79.9343C22.0703 81.2226 20.7821 83.7233 20.7063 86.8304C20.6305 89.1796 21.3125 91.3015 23.1313 92.8929C25.1774 94.7116 27.6781 94.939 30.2547 94.4843C31.6946 94.1812 32.9828 93.4991 33.968 92.4382C33.5891 91.9077 33.2102 91.3773 32.8313 90.9226C30.7094 92.7413 28.3602 93.3476 25.7836 92.1351C24.1164 91.3015 23.2828 89.2554 23.1313 87.7397H34.8774V86.7546C34.9531 86.0726 34.8774 85.4663 34.7258 84.9358ZM23.2828 86.1483C23.0555 83.8749 25.3289 81.4499 27.8297 81.4499C30.7094 81.3741 32.5281 83.1171 32.6039 86.1483H23.2828ZM46.5477 79.5554C45.411 79.328 44.1985 79.2523 43.0617 79.328C41.243 79.4796 39.6516 80.3132 38.3633 81.6772C38.7422 82.2077 39.0453 82.7382 39.5 83.3444C39.6516 83.1929 39.8031 83.0413 39.9547 82.9655C41.1672 81.8288 42.6071 81.2226 44.35 81.3741C45.7141 81.4499 47.0024 81.9046 47.3813 83.2687C47.6844 84.3296 47.6086 85.4663 47.6844 86.603C47.4571 86.603 47.3813 86.5273 47.3055 86.4515C45.4867 84.9358 43.4407 84.6327 41.243 85.1632C39.1969 85.6936 37.9086 87.2851 37.7571 89.3312C37.6055 91.6804 38.6664 93.4233 40.7125 94.2569C42.0008 94.7874 43.4406 94.7874 44.8047 94.4843C45.8656 94.2569 46.3203 93.6507 47.836 92.8171V93.8022H49.9578C49.9578 90.771 50.0336 87.0577 49.9578 83.5718C49.9578 81.3741 48.6696 80.0101 46.5477 79.5554ZM47.6086 89.1038C47.5328 89.3312 47.6086 89.5585 47.6086 89.7858C47.6086 91.3773 47.2297 91.9077 45.7141 92.514C44.6531 92.8929 43.5164 93.0444 42.3797 92.6655C41.0914 92.2866 40.1821 91.1499 40.1821 89.8616C40.1063 88.5733 40.9399 87.2851 42.2281 86.9062C43.9711 86.2999 45.5625 86.6788 47.0024 87.7397C47.4571 88.1187 47.7602 88.4976 47.6086 89.1038ZM59.4305 81.6015C61.4008 80.9952 63.2196 81.3741 64.5836 83.0413L64.811 83.1929C65.3414 82.7382 65.7961 82.2835 66.4024 81.753C66.175 81.5257 66.0992 81.3741 65.9477 81.1468C63.75 78.7976 59.4305 78.4944 56.7781 80.389C53.0649 83.1171 53.1406 88.4218 54.9594 91.2257C56.7024 93.878 59.2031 94.7874 62.1586 94.4085C63.9016 94.1812 65.3414 93.3476 66.4781 91.9077C65.9477 91.453 65.4172 90.9983 64.8867 90.4679C64.7352 90.6194 64.6594 90.6952 64.5836 90.8468C62.5375 93.1202 59.1274 92.8929 57.3086 90.4679C56.2477 89.028 56.0203 87.3608 56.3235 85.6937C56.475 83.7991 57.4602 82.2835 59.4305 81.6015ZM75.193 91.9077C75.0414 91.9835 74.9656 92.0593 74.9656 92.0593C74.3594 92.514 73.7532 92.5897 73.0711 92.3624C72.3891 92.0593 72.3133 91.453 72.2375 90.8468V82.2077C72.2375 82.0562 72.2375 82.3593 72.3133 81.6015H75.193V79.328H72.1617V75.539H69.8883V79.6312H67.918C67.7664 79.6312 67.5391 79.7827 67.5391 79.9343C67.4633 80.4648 67.5391 80.8437 67.5391 81.6015H69.9641V91.3015C69.9641 92.514 70.2672 93.5749 71.3281 94.1812C72.4649 94.8632 74.6625 94.7116 75.6477 93.878C75.7992 93.8022 75.875 93.4991 75.875 93.4233C75.6477 92.9687 75.4203 92.4382 75.193 91.9077Z" fill="#61DAFB"/>
</svg>
