<svg width="38" height="38" viewBox="0 0 38 38" fill="none" xmlns="http://www.w3.org/2000/svg">
<rect x="0.5" y="0.5" width="37" height="37" rx="6.5" fill="white" stroke="white"/>
<path d="M30.2889 5.95092C29.9675 5.96502 29.6546 6.05448 29.3724 6.16748C29.0931 6.27972 27.4852 6.966 25.1108 7.98119C22.7363 8.99637 19.6497 10.3184 16.5901 11.6292C10.4707 14.251 4.45741 16.8306 4.45741 16.8306L4.50124 16.8138C4.50124 16.8138 4.1383 16.9352 3.77034 17.1915C3.58636 17.3197 3.38842 17.4852 3.22635 17.7265C3.06429 17.9678 2.9458 18.3097 2.99045 18.6714C3.14729 19.9417 4.46385 20.302 4.46385 20.302L4.46901 20.3046L10.3446 22.3156C10.4944 22.8153 12.1266 28.2633 12.4857 29.417C12.684 30.0549 12.8696 30.4228 13.0632 30.6738C13.1601 30.7995 13.2616 30.8967 13.3739 30.9678C13.4185 30.996 13.4654 31.0172 13.5118 31.0361C13.5128 31.0365 13.5134 31.0356 13.5144 31.0361C13.5201 31.0386 13.5254 31.0388 13.5311 31.0412L13.5156 31.0374C13.5264 31.0417 13.5371 31.049 13.5479 31.0528C13.5688 31.0602 13.5817 31.0599 13.6085 31.0657C14.2814 31.3007 14.8382 30.8646 14.8382 30.8646L14.8614 30.8466L18.4708 27.4989L24.3283 32.066L24.4018 32.0995C25.4271 32.5548 26.3543 32.3008 26.8678 31.883C27.3812 31.4652 27.5832 30.9265 27.5832 30.9265L27.6051 30.8698L31.9093 8.43623C32.0194 7.93434 32.0351 7.50051 31.9312 7.10849C31.8273 6.71648 31.575 6.3757 31.2583 6.18681C30.9416 5.99793 30.6104 5.93681 30.2889 5.95092ZM30.3237 7.29283C30.4543 7.28678 30.551 7.30171 30.5815 7.3199C30.612 7.33809 30.6257 7.3357 30.655 7.44623C30.6843 7.55676 30.7002 7.78957 30.6202 8.15392L30.6176 8.16166L26.3379 30.465C26.3278 30.4875 26.2386 30.6938 26.035 30.8595C25.8273 31.0285 25.5963 31.1604 24.9831 30.9033L18.5778 25.9082L18.3973 25.7664L18.3935 25.7703L16.4779 24.3329L27.2429 11.6679C27.3256 11.5708 27.3784 11.4519 27.395 11.3254C27.4115 11.199 27.3911 11.0705 27.3361 10.9554C27.2812 10.8403 27.1941 10.7436 27.0853 10.677C26.9766 10.6103 26.8509 10.5766 26.7234 10.5799C26.5988 10.5832 26.4777 10.6216 26.374 10.6908L10.797 21.0755L4.91245 19.0607C4.91245 19.0607 4.32811 18.7355 4.30014 18.509C4.29859 18.4964 4.29169 18.5078 4.32206 18.4626C4.35242 18.4174 4.42875 18.341 4.52444 18.2744C4.71582 18.141 4.93436 18.0604 4.93436 18.0604L4.95627 18.0526L4.97819 18.0436C4.97819 18.0436 10.9918 15.4639 17.1108 12.8422C20.1704 11.5314 23.2564 10.2104 25.6303 9.19549C28.0035 8.18081 29.7183 7.45046 29.8635 7.39209C30.0288 7.32589 30.1932 7.29888 30.3237 7.29283ZM23.1849 14.4033L15.0213 24.0081L15.0174 24.012C15.0047 24.0273 14.9926 24.0432 14.9813 24.0597C14.9684 24.0775 14.9563 24.096 14.9452 24.1151C14.8994 24.1929 14.87 24.2794 14.8589 24.369C14.8588 24.3708 14.8588 24.3725 14.8589 24.3742L13.7954 29.1566C13.7777 29.1049 13.7653 29.086 13.7464 29.0251V29.0238C13.4086 27.9385 11.8686 22.8006 11.6555 22.09L23.1849 14.4033ZM15.943 25.582L17.4099 26.6829L15.2546 28.681L15.943 25.582Z" fill="black"/>
</svg>
