<svg width="27" height="28" viewBox="0 0 27 28" fill="none" xmlns="http://www.w3.org/2000/svg">
<path d="M23.2944 3.59674C22.8894 3.2533 22.2533 3.20416 21.5956 3.46822H21.5945C20.9028 3.74578 2.01356 11.8479 1.2446 12.179C1.10474 12.2276 -0.116743 12.6833 0.00907679 13.6985C0.121397 14.6138 1.10312 14.9929 1.223 15.0366L6.02522 16.6809C6.34382 17.7415 7.51832 21.6543 7.77806 22.4903C7.94006 23.0114 8.20412 23.6961 8.6669 23.837C9.07298 23.9936 9.4769 23.8505 9.73826 23.6453L12.6742 20.9221L17.4138 24.6184L17.5267 24.6859C17.8485 24.8285 18.1569 24.8997 18.4512 24.8997C18.6785 24.8997 18.8967 24.8571 19.1051 24.7718C19.8152 24.4802 20.0992 23.8035 20.1289 23.7269L23.6692 5.32528C23.8852 4.34248 23.5849 3.84244 23.2944 3.59674ZM10.2604 17.3387L8.64044 21.6587L7.02044 16.2587L19.4404 7.07866L10.2604 17.3387Z" fill="black"/>
</svg>
