<svg width="79" height="70" viewBox="0 0 79 70" fill="none" xmlns="http://www.w3.org/2000/svg">
<path d="M39.5 35L39.6063 34.65L48.6375 17.85L49.2396 17.5H54.8708L55.4375 17.85V18.55L46.5833 35L55.4375 51.45V52.15L54.8708 52.5H49.2396L48.6375 52.15L39.6063 35.35L39.5 35V35.35L30.3625 52.15L29.7604 52.5H24.1292L23.5625 52.15V51.45L32.4167 35L23.5625 18.55V17.85L24.1292 17.5H29.7604L30.3625 17.85L39.5 34.65V35ZM77.5729 31.745C78.1396 32.725 78.4583 33.845 78.4583 35C78.4583 36.155 78.1396 37.275 77.5729 38.255L61.0333 66.5C59.7583 68.67 57.4208 70 54.9063 70H24.0938C21.5792 70 19.2417 68.67 17.9667 66.5L1.42709 38.255C0.860422 37.275 0.541672 36.155 0.541672 35C0.541672 33.845 0.860422 32.725 1.42709 31.745L17.9667 3.5C19.2417 1.33 21.5792 0 24.0938 0H54.9063C57.4208 0 59.7583 1.33 61.0333 3.5L77.5729 31.745ZM70.6667 32.375L57.1021 9.8C56.075 8.05 54.1625 7 52.1083 7H26.8917C24.8375 7 22.925 8.05 21.8979 9.8L8.33334 32.375C7.87292 33.25 7.625 34.09 7.625 35C7.625 35.91 7.87292 36.75 8.33334 37.625L21.8979 60.2C22.925 61.95 24.8375 63 26.8917 63H52.1083C54.1625 63 56.075 61.95 57.1021 60.2L70.6667 37.625C71.1271 36.75 71.375 35.91 71.375 35C71.375 34.09 71.1271 33.25 70.6667 32.375Z" fill="black"/>
</svg>
